<?xml version="1.0" encoding="UTF-8"?>
<svg xmlns="http://www.w3.org/2000/svg" viewBox="25 45 295 235">
<path d="M0 0 C4.70877138 4.03467359 7.35874586 8.42792973 9.48046875 14.21484375 C12.2457679 21.37730994 14.86695742 28.09560011 21 33 C30.25023066 36.37162302 41.69480894 35.08039654 51.30258179 34.03244019 C54.95080191 33.70881258 56.77010475 33.86263307 59.95288086 35.7644043 C62 38 62 38 62.625 41.5 C61.91190406 51.59593724 56.09706777 61.07513145 49 68 C39.63446747 74.91500221 31.74784238 75.26378445 20.50146484 75.35009766 C18.92058599 75.36666327 17.33978222 75.39396192 15.75927734 75.43212891 C13.46673194 75.48711175 11.17592978 75.50879811 8.8828125 75.5234375 C8.18261993 75.54610687 7.48242737 75.56877625 6.76101685 75.59213257 C1.05811392 75.567777 -1.13684624 73.88112356 -5 70 C-6.56396484 68.1472168 -6.56396484 68.1472168 -7.7109375 66.44921875 C-8.15179688 65.83369141 -8.59265625 65.21816406 -9.046875 64.58398438 C-9.93895522 63.31014629 -10.81645288 62.02598153 -11.6796875 60.73242188 C-14.19750479 57.19110129 -14.19750479 57.19110129 -18.06347656 55.54931641 C-20.95947703 55.5094392 -23.38856582 55.69428291 -26 57 C-25.18015625 57.9178125 -24.3603125 58.835625 -23.515625 59.78125 C-22.42663799 61.02044211 -21.33812139 62.26004772 -20.25 63.5 C-19.71117187 64.10070312 -19.17234375 64.70140625 -18.6171875 65.3203125 C-10.46508871 74.66540135 -8.58010738 82.73250165 -9 95 C-9.34215369 99.26334883 -9.86310721 103.49112134 -10.42578125 107.73046875 C-10.57403854 108.88694412 -10.72229584 110.04341949 -10.87504578 111.23493958 C-11.18793462 113.65805083 -11.50494072 116.08063375 -11.82592773 118.50268555 C-12.31245231 122.18713884 -12.78107719 125.87356997 -13.24804688 129.56054688 C-13.55622253 131.92982681 -13.86543209 134.29897254 -14.17578125 136.66796875 C-14.31341385 137.75675827 -14.45104645 138.84554779 -14.59284973 139.96733093 C-17.08972042 158.4978369 -17.08972042 158.4978369 -22.875 163 C-23.86113281 163.804375 -23.86113281 163.804375 -24.8671875 164.625 C-31.68186751 169.01834682 -39.16902742 168.86819784 -47 168 C-50.40353832 166.42958523 -52.30519524 164.38960951 -54 161 C-54.13267296 157.9886324 -54.18965655 155.01243521 -54.1875 152 C-54.18814453 151.05390869 -54.18878906 150.10781738 -54.18945312 149.13305664 C-54.11041632 137.73648879 -53.33394456 126.37723417 -52.56991577 115.01014709 C-52.43953854 112.96556228 -52.32940233 110.92075847 -52.22387695 108.87475586 C-52.07893689 106.36620222 -51.87783862 103.86000557 -51.61010742 101.36157227 C-51.0942675 95.16148715 -51.0942675 95.16148715 -53.66650391 89.71704102 C-56.09657699 87.57188573 -58.59080734 85.82224567 -61.3125 84.0625 C-62.25569092 83.39992188 -63.19888184 82.73734375 -64.1706543 82.0546875 C-66.12668813 80.68237611 -68.09477794 79.32709722 -70.07421875 77.98876953 C-73.73598145 75.49972423 -77.31436987 72.90900499 -80.8815918 70.28686523 C-82.44768458 69.13569188 -84.02156033 67.99499559 -85.60473633 66.86743164 C-99.09277262 57.12515573 -99.09277262 57.12515573 -102 50 C-103.09363237 39.90297559 -101.97486373 31.7919443 -96.22265625 23.41015625 C-80.48939267 3.92669204 -48.72652941 1.33168372 -25.625 -1.75 C-24.66843506 -1.87777832 -23.71187012 -2.00555664 -22.72631836 -2.13720703 C-14.64514162 -3.15748878 -7.33328135 -4.0778328 0 0 Z M-21.48144531 13.43164062 C-24.83901813 13.88406149 -28.18182221 14.38201644 -31.52685547 14.91650391 C-33.5983909 15.24577053 -35.67188818 15.55914979 -37.74609375 15.87109375 C-62.48087988 19.36786202 -62.48087988 19.36786202 -83 32 C-85.72951137 36.21443423 -87.64194607 39.87255734 -87 45 C-81.46072066 52.4356092 -71.44003198 57.90941168 -64.02734375 63.3203125 C-59.17694443 66.86342536 -54.35449052 70.44078053 -49.5625 74.0625 C-48.85931641 74.58610107 -48.15613281 75.10970215 -47.43164062 75.64916992 C-41.02227726 80.51515985 -37.16449807 84.76385861 -36 93 C-35.9143793 97.65010892 -36.18366412 102.2652944 -36.4609375 106.90625 C-36.53210805 108.23997524 -36.6022097 109.5737579 -36.67129517 110.90759277 C-36.8546847 114.39338601 -37.05244815 117.87821563 -37.25335693 121.36303711 C-37.45634637 124.92905126 -37.64553678 128.49579549 -37.8359375 132.0625 C-38.21056144 139.04243619 -38.60039674 146.02145049 -39 153 C-35.06924356 152.42547254 -35.06924356 152.42547254 -32 150 C-31.39018713 147.4222763 -31.39018713 147.4222763 -31.02270508 144.36035156 C-30.85946243 143.17862366 -30.69621979 141.99689575 -30.5280304 140.77935791 C-30.36022568 139.49607605 -30.19242096 138.21279419 -30.01953125 136.890625 C-29.84112104 135.56257664 -29.66221487 134.23459483 -29.48283386 132.90667725 C-29.10839245 130.11980785 -28.74016796 127.33220398 -28.3762207 124.54394531 C-27.91054772 120.980376 -27.4293904 117.41910557 -26.9434557 113.85824966 C-26.57073947 111.11378002 -26.20648217 108.36823748 -25.84470177 105.62230682 C-25.58632733 103.67303619 -25.3207886 101.72471949 -25.05513 99.77642822 C-24.90134384 98.58209167 -24.74755768 97.38775513 -24.58911133 96.15722656 C-24.45080399 95.11068909 -24.31249664 94.06415161 -24.16999817 92.98590088 C-23.74675641 85.5519506 -26.20648224 81.17419753 -30.94921875 75.78515625 C-32.47708254 74.09730672 -34.00985966 72.41389507 -35.546875 70.734375 C-49.29094988 55.41454631 -49.29094988 55.41454631 -49.25 49.9375 C-49 46 -49 46 -47 44 C-42.93214693 43.00250309 -38.76590348 42.49134175 -34.625 41.875 C-33.49449219 41.69324219 -32.36398438 41.51148438 -31.19921875 41.32421875 C-15.31521576 38.9043191 -15.31521576 38.9043191 -9 40 C-5.6514052 42.57702115 -3.4314291 45.56680198 -1 49 C0.47124311 50.83969804 1.95026703 52.67320411 3.4375 54.5 C4.09621094 55.3353125 4.75492187 56.170625 5.43359375 57.03125 C6.85025239 58.88794643 6.85025239 58.88794643 8 60 C11.53353758 60.28159078 15.08159153 60.2318983 18.625 60.25 C19.61113281 60.270625 20.59726563 60.29125 21.61328125 60.3125 C29.16517361 60.35283053 34.09154609 59.53716192 39.9375 54.4375 C42.21531408 52.27770623 42.21531408 52.27770623 42 50 C40.81241089 49.97812622 40.81241089 49.97812622 39.60083008 49.95581055 C36.00423457 49.88121644 32.40855557 49.78459167 28.8125 49.6875 C27.56662109 49.66494141 26.32074219 49.64238281 25.03710938 49.61914062 C23.83505859 49.58369141 22.63300781 49.54824219 21.39453125 49.51171875 C20.28956299 49.48553467 19.18459473 49.45935059 18.04614258 49.43237305 C14.55594597 48.93697045 12.76239585 48.18289673 10 46 C8.2265625 43.38378906 8.2265625 43.38378906 6.625 40.265625 C5.73554688 38.56792969 5.73554688 38.56792969 4.828125 36.8359375 C4.21793675 35.64103995 3.60856709 34.44572403 3 33.25 C0.706808 28.81061548 -1.61745058 24.39210264 -4 20 C-4.40734375 19.21173828 -4.8146875 18.42347656 -5.234375 17.61132812 C-6.42866039 15.40127119 -6.42866039 15.40127119 -9 13 C-13.44476166 12.33011739 -17.04392874 12.88146326 -21.48144531 13.43164062 Z " fill="#000000" transform="translate(205,96)"/>
<path d="M0 0 C12.4137179 9.67003682 20.9609149 22.11985241 23 38 C24.2396578 54.23748499 20.21726298 68.68749865 10.0390625 81.4609375 C0.34746525 92.01721258 -12.78342176 98.37093573 -27.03515625 99.30859375 C-43.04144795 99.97415871 -56.30099764 95.50946911 -68.6875 85.3125 C-80.02004812 74.80086084 -85.50790485 60.01556826 -86.375 44.8125 C-85.94437916 29.82151203 -79.68794667 16.07471712 -69.484375 5.2890625 C-50.73559865 -11.98575344 -21.13385973 -14.82016639 0 0 Z M-40 8 C-39.3184082 9.43666016 -39.3184082 9.43666016 -38.62304688 10.90234375 C-36.93025023 14.48094537 -35.25788173 18.06878861 -33.59130859 21.65966797 C-32.86925098 23.20813426 -32.14178636 24.7540918 -31.40869141 26.29736328 C-30.35164007 28.525081 -29.31481135 30.76130486 -28.28125 33 C-27.95314331 33.68054443 -27.62503662 34.36108887 -27.2869873 35.06225586 C-25.07480112 39.92461439 -24.5021554 43.6532066 -25 49 C-27.69101819 51.6118706 -29.21432816 52.00417356 -32.94140625 51.984375 C-36 51 -36 51 -38.01953125 48.10546875 C-38.64064344 46.81047013 -39.23675986 45.50329827 -39.8125 44.1875 C-40.13798828 43.49205078 -40.46347656 42.79660156 -40.79882812 42.08007812 C-41.89012123 39.73039412 -42.94545008 37.366386 -44 35 C-44.83612121 33.16225118 -45.67339333 31.32502562 -46.51171875 29.48828125 C-48.70158081 24.6707549 -50.86075338 19.84019487 -53 15 C-56.17373605 14.66604513 -56.17373605 14.66604513 -58.4375 17.1875 C-59.7059375 18.5796875 -59.7059375 18.5796875 -61 20 C-61.680625 20.7425 -62.36125 21.485 -63.0625 22.25 C-69.59806032 31.52627916 -70.84175415 40.84379364 -70 52 C-67.46018318 63.45094554 -60.39015442 72.20231197 -51 79 C-45.9436359 81.64639267 -40.70801793 83.50365062 -35 84 C-33.824375 84.103125 -32.64875 84.20625 -31.4375 84.3125 C-20.56290735 84.08421657 -10.85518339 79.29051366 -3 72 C5.30085775 62.55891453 7.797114 53.3173715 7.34375 40.94140625 C6.43043893 30.46946456 1.79960084 22.30249219 -5.9140625 15.25 C-13.56748796 9.15165302 -21.82777832 5.87997398 -31.625 5.8125 C-32.56601563 5.79832031 -33.50703125 5.78414062 -34.4765625 5.76953125 C-37.24704023 5.82039293 -37.24704023 5.82039293 -40 8 Z " fill="#000000" transform="translate(284,185)"/>
<path d="M0 0 C12.00846171 8.56273472 19.9746572 19.89345237 23.09375 34.44921875 C25.45715072 48.62617285 23.69375424 62.70178691 15.75390625 74.96875 C14.31805475 76.9135109 12.8288852 78.77126464 11.2734375 80.62109375 C10.67789063 81.42546875 10.08234375 82.22984375 9.46875 83.05859375 C1.75107209 92.06712882 -10.12909966 97.80482443 -21.7265625 99.62109375 C-38.91636652 100.65315876 -53.45037331 97.88002301 -66.8515625 86.43359375 C-77.37857539 76.57677889 -84.0796745 64.37986266 -84.94921875 49.91796875 C-85.43574862 34.28112504 -81.7643358 21.31918916 -71.3515625 9.30859375 C-52.63310757 -10.40817877 -23.19703009 -15.05179461 0 0 Z M-61.96875 22.07421875 C-68.32805216 31.28814099 -70.87703153 41.63431558 -69.1015625 52.68359375 C-66.47721863 63.65022277 -60.47644826 72.80609216 -50.9765625 78.93359375 C-40.56469023 84.73201124 -30.57652918 86.13485041 -19.1640625 82.99609375 C-9.00843684 79.60694891 -0.26290398 72.56464065 4.6640625 62.890625 C6.59835121 58.39518967 6.59835121 58.39518967 7.2734375 53.62109375 C5.48728027 53.59921997 5.48728027 53.59921997 3.66503906 53.5769043 C-0.75583827 53.5189014 -5.17620731 53.4416686 -9.59667969 53.35864258 C-11.50935614 53.32540261 -13.42213047 53.29736776 -15.33496094 53.2746582 C-18.08571044 53.24109506 -20.83556382 53.18877886 -23.5859375 53.1328125 C-24.44024353 53.12642258 -25.29454956 53.12003265 -26.17474365 53.1134491 C-32.09839093 52.96697874 -32.09839093 52.96697874 -35.23925781 51.23754883 C-37.27980682 49.01980836 -37.65493534 47.62943462 -37.7265625 44.62109375 C-35.53253265 40.02407882 -35.53253265 40.02407882 -32.7265625 38.62109375 C-29.73892895 38.46376126 -26.77115099 38.3624796 -23.78125 38.3046875 C-22.8962381 38.2839064 -22.0112262 38.26312531 -21.09939575 38.24171448 C-18.26686509 38.17622777 -15.43424025 38.11733813 -12.6015625 38.05859375 C-10.68358393 38.01540769 -8.76561496 37.97179338 -6.84765625 37.92773438 C-2.14072199 37.82054728 2.56630717 37.71927735 7.2734375 37.62109375 C6.96946045 36.35273682 6.6654834 35.08437988 6.35229492 33.77758789 C6.18130783 33.06413712 6.01032074 32.35068634 5.83415222 31.61561584 C3.65463725 23.86284853 -3.37527594 16.30593014 -10.11328125 12.1484375 C-28.41226135 2.53656893 -48.47836679 5.7983718 -61.96875 22.07421875 Z " fill="#000000" transform="translate(123.7265625,184.37890625)"/>
<path d="M0 0 C6.18216456 4.86596179 9.8915593 11.15561981 12.00390625 18.6796875 C13.03134455 29.31434109 11.6423189 38.38545308 4.87109375 46.82421875 C-1.55149309 53.20649647 -9.77777357 56.60345126 -18.74609375 57.0546875 C-27.50494814 56.82839491 -34.97228939 53.64821299 -41.27734375 47.6015625 C-47.67199772 40.4511767 -50.48955054 32.84071325 -50.2421875 23.22265625 C-49.41645662 14.69010378 -45.40676687 6.43960557 -38.8515625 0.8515625 C-26.9955615 -7.46985558 -12.18169591 -8.05756011 0 0 Z M-31.43359375 16.3046875 C-34.54816737 21.0388394 -34.60626926 25.09357364 -33.99609375 30.6796875 C-31.66640444 35.51827298 -28.83467923 38.34999819 -23.99609375 40.6796875 C-19.00161786 41.4768514 -15.19879614 41.25876643 -10.62109375 39.0546875 C-6.67875724 35.48781161 -4.46465607 32.39774933 -3.05859375 27.2421875 C-2.97006904 22.19627916 -4.18038415 18.81158927 -7.4765625 14.94140625 C-10.9485835 11.61239755 -14.08669703 9.70947023 -18.9453125 9.4453125 C-24.14887407 10.04000525 -27.93388425 12.53576958 -31.43359375 16.3046875 Z " fill="#000000" transform="translate(260.99609375,65.3203125)"/>
</svg>
