<?xml version="1.0" encoding="UTF-8"?>
<svg xmlns="http://www.w3.org/2000/svg" viewBox="240 130 270 290">
<path d="M0 0 C0.88910568 -0.02567047 1.77821136 -0.05134094 2.69425964 -0.07778931 C3.65665054 -0.09256317 4.61904144 -0.10733704 5.6105957 -0.12255859 C6.61161819 -0.13870209 7.61264069 -0.15484558 8.64399719 -0.17147827 C10.77154624 -0.19916871 12.8991843 -0.22060918 15.02685547 -0.23632812 C17.17686469 -0.25919542 19.32676826 -0.29982286 21.47607422 -0.359375 C35.94152874 -0.75998092 46.35141834 0.42157432 58.59887695 8.35400391 C59.73266329 9.05783264 60.86756233 9.75987264 62.00366211 10.45996094 C73.20502349 17.51559596 83.07506414 26.3739062 92.63110352 35.48291016 C94.05392717 36.83582833 95.48388677 38.18125519 96.91821289 39.52197266 C107.11902186 49.09349793 115.36603725 57.23533008 120.59887695 70.35400391 C121.64018023 72.83300838 122.70257057 75.30275678 123.7668457 77.77197266 C124.04089233 78.40953491 124.31493896 79.04709717 124.59729004 79.70397949 C125.26378504 81.25428903 125.93122988 82.80419016 126.59887695 84.35400391 C127.66847656 84.36334961 128.73807617 84.37269531 129.84008789 84.38232422 C133.81381666 84.42223903 137.78677239 84.48800111 141.76000977 84.56152344 C143.47865864 84.58972458 145.19743701 84.61094344 146.91625977 84.625 C149.38926443 84.64644224 151.8607137 84.69309546 154.33325195 84.74462891 C155.10006287 84.74585754 155.86687378 84.74708618 156.65692139 84.74835205 C160.2171436 84.84579558 162.22349446 85.06515739 165.08447266 87.26660156 C167.68314146 90.84851649 167.14295043 94.10757675 166.59887695 98.35400391 C164.97650541 106.54074029 162.02625299 113.18921291 155.09887695 118.10400391 C145.77727156 123.29432668 134.15058445 123.99104075 123.72387695 125.10400391 C122.5534082 125.24193359 121.38293945 125.37986328 120.17700195 125.52197266 C108.25978839 126.83259592 108.25978839 126.83259592 103.59887695 125.35400391 C101.57812143 123.36031207 100.16742025 121.7142936 98.59887695 119.41650391 C98.17880371 118.83618408 97.75873047 118.25586426 97.32592773 117.65795898 C96.06298595 115.90355243 94.82941958 114.13123186 93.59887695 112.35400391 C92.51219727 110.82646484 92.51219727 110.82646484 91.40356445 109.26806641 C89.78170134 106.97644606 88.18023277 104.67367485 86.59887695 102.35400391 C84.22362914 104.31616514 81.9045807 106.31169338 79.59887695 108.35400391 C78.71071289 109.12744141 77.82254883 109.90087891 76.9074707 110.69775391 C76.00125977 111.53306641 75.09504883 112.36837891 74.16137695 113.22900391 C72.86393555 114.40076172 72.86393555 114.40076172 71.5402832 115.59619141 C67.3364658 121.56781129 70.01389449 130.04109602 71.09887695 136.85400391 C74.10582833 155.73549141 74.10582833 155.73549141 68.59887695 163.35400391 C63.22620789 167.71929752 59.47590931 168.55640012 52.72387695 168.06494141 C38.55955037 166.6251855 38.55955037 166.6251855 25.97485352 171.72851562 C23.66854984 174.13875846 21.63002058 176.71024116 19.59887695 179.35400391 C17.7390353 181.32992355 15.79409775 183.21262434 13.84887695 185.10400391 C12.94524414 186.01794922 12.04161133 186.93189453 11.1105957 187.87353516 C9.01792823 189.94016633 6.89885989 191.88618339 4.66137695 193.79150391 C1.12208569 196.80753239 -2.1360645 200.04848615 -5.40112305 203.35400391 C-8.62510098 206.61783323 -11.83630178 209.82230554 -15.33862305 212.79150391 C-19.06079541 215.9541848 -22.46901228 219.38435976 -25.90112305 222.85400391 C-43.30623903 240.39088266 -43.30623903 240.39088266 -52.28393555 240.85009766 C-54.03144004 240.85141157 -55.77907589 240.83150277 -57.52612305 240.79150391 C-58.84676758 240.80213867 -58.84676758 240.80213867 -60.1940918 240.81298828 C-65.04296967 240.76545026 -68.51538829 240.56691688 -72.40112305 237.35400391 C-74.89908877 233.60705532 -75.26291312 230.68964689 -74.40112305 226.35400391 C-73.3034668 224.30517578 -73.3034668 224.30517578 -71.83862305 222.19775391 C-71.29270508 221.41190918 -70.74678711 220.62606445 -70.18432617 219.81640625 C-67.16401802 215.64570143 -64.04891848 211.55402703 -60.90112305 207.47900391 C-55.50254388 200.44255497 -50.15435532 193.37473193 -44.90112305 186.22900391 C-44.36293945 185.49697754 -43.82475586 184.76495117 -43.27026367 184.01074219 C-38.96238425 178.1384084 -34.68183057 172.24615877 -30.40112305 166.35400391 C-31.28372803 166.30912842 -32.16633301 166.26425293 -33.07568359 166.21801758 C-36.36583994 166.04425924 -39.65484966 165.85835563 -42.94384766 165.66430664 C-44.36447707 165.58296611 -45.78538883 165.50640458 -47.20654297 165.43481445 C-49.25541534 165.33075614 -51.30263979 165.20925829 -53.3503418 165.08447266 C-54.58099365 165.01639404 -55.81164551 164.94831543 -57.07958984 164.87817383 C-60.60167121 164.32235548 -62.56729745 163.48404494 -65.40112305 161.35400391 C-68.14116468 157.24394146 -68.11155153 154.17899736 -67.40112305 149.35400391 C-65.46510506 143.44223469 -63.35377483 139.40219807 -57.76274109 136.32588196 C-52.55889729 134.18434108 -46.89738416 133.61795835 -41.3659668 132.77587891 C-40.00011575 132.55848485 -38.63444108 132.33998004 -37.26893616 132.12042236 C-34.41835366 131.66498775 -31.56655019 131.2187051 -28.71337891 130.77978516 C-25.06767786 130.21881403 -21.42480318 129.64156829 -17.78261471 129.0582695 C-14.96676654 128.6080087 -12.15009863 128.1630792 -9.33310127 127.72006989 C-7.33995343 127.40661699 -5.34709017 127.09135631 -3.35423279 126.77606201 C-2.13599319 126.58876526 -0.9177536 126.40146851 0.33740234 126.20849609 C1.40438858 126.04291199 2.47137482 125.87732788 3.57069397 125.70672607 C6.60965171 125.35274886 9.54238616 125.29142988 12.59887695 125.35400391 C12.31012695 124.43619141 12.02137695 123.51837891 11.72387695 122.57275391 C6.92422324 106.7072319 6.92422324 106.7072319 10.03637695 99.47900391 C12.45926364 95.10245155 15.78160858 91.61675359 19.1809082 87.97900391 C22.346788 84.54205524 25.25769322 80.92634953 28.1965332 77.29541016 C31.34566487 73.43964406 34.5650271 69.64590514 37.79370117 65.85668945 C40.45172022 62.73182703 43.05279703 59.57072959 45.59887695 56.35400391 C44.23161234 55.0748519 42.85464457 53.80606831 41.47387695 52.54150391 C40.70817383 51.83380859 39.9424707 51.12611328 39.15356445 50.39697266 C33.17528362 45.61617621 27.72890972 44.78067089 20.34887695 43.97900391 C9.36920394 42.57190933 1.12637897 40.46298052 -5.99487305 31.44384766 C-10.65633859 24.51639192 -11.24935655 17.5988336 -10.40112305 9.35400391 C-8.88724169 3.41176213 -6.36278933 0.16060078 0 0 Z M5.59887695 16.35400391 C6.10815972 20.93475822 6.10815972 20.93475822 8.6887207 24.62744141 C12.10967245 26.65705305 15.28957804 27.39127473 19.16137695 27.97900391 C19.86883057 28.1039624 20.57628418 28.2289209 21.30517578 28.35766602 C24.49339994 28.91130973 27.63025126 29.35667486 30.85668945 29.63134766 C39.46133379 30.46886637 44.67556734 34.54527667 50.99975586 40.00488281 C52.57146846 41.33088035 54.18193537 42.57305598 55.8293457 43.80322266 C56.82579102 44.56248047 57.82223633 45.32173828 58.84887695 46.10400391 C59.7409082 46.77947266 60.63293945 47.45494141 61.55200195 48.15087891 C64.10453121 50.89825773 64.45086705 52.64388896 64.59887695 56.35400391 C62.17719209 62.07798632 58.20520393 66.16386152 54.0168457 70.69384766 C50.86503189 74.16135203 47.93603492 77.7862667 44.98950195 81.42822266 C42.8235984 84.07897717 40.62496285 86.69509386 38.40405273 89.29956055 C36.9961753 90.95281915 35.5974095 92.61339994 34.20043945 94.27587891 C32.59439495 96.18710722 30.96797066 98.06458096 29.30981445 99.93212891 C25.49309247 104.30300425 25.49309247 104.30300425 24.47387695 109.85400391 C25.07490596 111.72387193 25.68577129 113.59151509 26.3605957 115.43603516 C28.35733318 120.99767955 29.84333084 126.43549881 28.59887695 132.35400391 C25.93498182 136.32287333 24.18335468 137.97645994 19.4934082 138.90478516 C17.76598389 139.24823975 17.76598389 139.24823975 16.00366211 139.59863281 C14.53629075 139.85556113 13.06790386 140.10671701 11.59887695 140.35400391 C10.68056091 140.50899353 9.76224487 140.66398315 8.81610107 140.82366943 C0.98264067 142.12692517 -6.86436683 143.3377962 -14.71362305 144.54150391 C-17.11147737 144.91281072 -19.50926449 145.28455178 -21.90698242 145.65673828 C-27.73759666 146.56083892 -33.56901998 147.45956037 -39.40112305 148.35400391 C-39.40112305 148.68400391 -39.40112305 149.01400391 -39.40112305 149.35400391 C-30.54148861 150.10263862 -21.70095323 150.59690381 -12.81518555 150.88916016 C-11.55636566 150.9321373 -10.29754578 150.97511444 -9.00057983 151.01939392 C-6.35011315 151.10899695 -3.69963874 151.19743298 -1.04907227 151.28393555 C2.92883795 151.4140327 6.90641466 151.55316332 10.8840332 151.69189453 C26.12887926 152.20784216 41.34553982 152.48113074 56.59887695 152.35400391 C56.15298613 145.06537942 55.58286268 137.8954195 54.53637695 130.66650391 C52.35876756 114.26638313 52.35876756 114.26638313 54.80493164 110.49414062 C55.35052734 109.90906738 55.89612305 109.32399414 56.45825195 108.72119141 C57.41042603 107.69312378 57.41042603 107.69312378 58.38183594 106.64428711 C62.68762549 102.19625146 67.02474826 97.7849685 71.41137695 93.41650391 C72.37443608 92.44987489 73.33732776 91.483079 74.30004883 90.51611328 C75.20948242 89.60796875 76.11891602 88.69982422 77.0559082 87.76416016 C77.8806665 86.94052979 78.7054248 86.11689941 79.55517578 85.26831055 C82.23105978 82.76184699 83.21011301 82.39801492 86.91137695 81.97900391 C91.40761377 82.43624833 92.83891717 84.05965105 95.59887695 87.35400391 C97.7050578 90.10913521 99.69070922 92.93837363 101.66137695 95.79150391 C102.17764648 96.52949219 102.69391602 97.26748047 103.22583008 98.02783203 C106.06915227 102.10265683 108.85943586 106.20871055 111.59887695 110.35400391 C116.1216329 109.93508886 120.64152458 109.49058464 125.16137695 109.04150391 C126.43819336 108.92355469 127.71500977 108.80560547 129.03051758 108.68408203 C138.22080563 107.85885023 138.22080563 107.85885023 146.59887695 104.35400391 C147.77613953 102.3171058 147.77613953 102.3171058 148.59887695 100.35400391 C147.67550537 100.33942139 146.75213379 100.32483887 145.80078125 100.30981445 C142.37310491 100.24874083 138.94623033 100.17458781 135.51904297 100.09155273 C134.03607841 100.05830968 132.55298751 100.03027567 131.06982422 100.00756836 C128.93703403 99.97400922 126.80540083 99.92169753 124.6730957 99.86572266 C123.39007568 99.83953857 122.10705566 99.81335449 120.78515625 99.78637695 C117.59887695 99.35400391 117.59887695 99.35400391 115.76660156 98.15063477 C114.28435484 95.87008832 113.60507963 93.7091322 112.84106445 91.09619141 C107.22561895 74.23733439 98.92860497 63.1585728 86.28637695 50.79150391 C85.23000031 49.7520462 85.23000031 49.7520462 84.15228271 48.69158936 C75.46850206 40.22116075 66.45970004 32.34051211 56.38449097 25.56155396 C55.20659772 24.7649848 54.03924787 23.95256745 52.88381958 23.12374878 C42.74553174 15.8908128 34.34190049 15.32365275 22.22387695 15.85400391 C20.60157074 15.8942532 18.97916649 15.93073349 17.35668945 15.96337891 C13.43493454 16.05031877 9.51803266 16.18763975 5.59887695 16.35400391 Z M-24.54711914 184.46777344 C-27.35369557 188.83692626 -30.4704247 192.95478836 -33.58862305 197.10400391 C-34.72149727 198.6459716 -35.85301787 200.18893475 -36.9831543 201.73291016 C-42.34962236 209.02030337 -47.87628731 216.1864014 -53.40112305 223.35400391 C-53.07112305 224.01400391 -52.74112305 224.67400391 -52.40112305 225.35400391 C-46.82343282 220.53877888 -41.38369888 215.60004085 -36.02612305 210.54150391 C-35.28370361 209.84226807 -34.54128418 209.14303223 -33.77636719 208.42260742 C-28.93023506 203.84285664 -24.19367567 199.17816797 -19.51049805 194.43212891 C-17.59554908 192.54554955 -15.63471093 190.78321508 -13.58862305 189.04150391 C-9.19562449 185.29269251 -5.17863818 181.18614616 -1.14404297 177.05981445 C1.47279989 174.40130084 4.10685865 171.87959423 6.99731445 169.51806641 C7.85583008 168.80392578 8.7143457 168.08978516 9.59887695 167.35400391 C9.59887695 167.02400391 9.59887695 166.69400391 9.59887695 166.35400391 C-8.87418077 162.7767417 -14.95556162 169.27389132 -24.54711914 184.46777344 Z " fill="#000000" transform="translate(328.401123046875,165.64599609375)"/>
<path d="M0 0 C6.63059452 4.71706724 11.004164 10.87186701 13.578125 18.59375 C14.37424599 30.2092858 13.8441407 38.63876533 6.203125 47.90625 C0.75317149 53.75129609 -4.92984582 57.16876154 -12.97265625 57.9296875 C-24.26479809 58.04694754 -31.364123 56.29967519 -39.6328125 48.4921875 C-46.02307832 41.71125041 -47.96217617 34.88863613 -48.421875 25.59375 C-48.03867124 17.02729165 -44.36411372 9.60382839 -38.37890625 3.515625 C-27.3130573 -5.80710792 -12.59398383 -7.31263577 0 0 Z M-29.734375 18.21875 C-32.63765207 22.30484365 -32.92795404 25.66177972 -32.421875 30.59375 C-30.35580082 36.24826882 -27.25909732 38.98343463 -22.109375 41.90625 C-16.91009682 43.23629791 -12.83548203 42.30055351 -8.171875 39.96875 C-3.79248656 36.18655089 -1.69325099 32.80352593 -0.984375 27.03125 C-1.66547034 21.67978663 -3.40712496 18.26037045 -7.484375 14.78125 C-15.51221678 8.80306995 -23.28055265 10.8927895 -29.734375 18.21875 Z " fill="#000000" transform="translate(466.421875,153.40625)"/>
</svg>
