<?xml version="1.0" encoding="UTF-8"?>
<svg xmlns="http://www.w3.org/2000/svg" viewBox="5 280 260 185">
<path d="M0 0 C14.57760041 5.84695781 28.63922937 14.45410256 40.4140625 24.82421875 C41.25195312 25.55382812 42.08984375 26.2834375 42.953125 27.03515625 C45.47251226 29.26530872 47.94896667 31.53432808 50.4140625 33.82421875 C51.08050781 34.42492187 51.74695313 35.025625 52.43359375 35.64453125 C56.73951924 39.69613527 60.33599483 44.1528552 63.8515625 48.88671875 C64.33214111 49.53133057 64.81271973 50.17594238 65.30786133 50.84008789 C67.60111226 54.00376983 69.62161125 57.07397188 71.23828125 60.63671875 C77.65601731 74.3303765 90.32313904 79.41242996 103.4140625 85.82421875 C105.41467291 86.82299699 107.41483921 87.82266683 109.4140625 88.82421875 C109.99414062 88.31890625 110.57421875 87.81359375 111.171875 87.29296875 C117.49137555 82.03714651 117.49137555 82.03714651 121.6640625 81.07421875 C125.54409737 82.13241008 127.10896876 83.54120645 129.4140625 86.82421875 C129.56246321 90.97943863 129.02614119 93.03443979 126.4765625 96.32421875 C111.07821121 108.89430143 96.03841346 113.28747287 76.4140625 111.82421875 C64.81857471 110.15882291 56.00095784 104.54311828 46.8515625 97.63671875 C38.06391088 91.18751784 28.67094431 89.15143579 17.77734375 90.0390625 C8.73188814 91.53007167 1.71655587 95.7051504 -5.3984375 101.32421875 C-18.47583873 111.46173908 -32.66177651 112.75626372 -48.5859375 111.82421875 C-56.78567364 110.6682225 -64.56359714 107.15259547 -71.5859375 102.82421875 C-73.93143424 99.30597364 -74.16585153 97.96646181 -73.5859375 93.82421875 C-71.17666527 90.56461515 -69.72653853 89.04737982 -65.7109375 88.26171875 C-62.74768583 88.79510405 -61.43683954 89.39913478 -58.9609375 90.94921875 C-57.8471875 91.56796875 -56.7334375 92.18671875 -55.5859375 92.82421875 C-51.94959822 91.67071413 -49.64598556 89.1261772 -47.00097656 86.46630859 C-46.10034485 85.56552582 -45.19971313 84.66474304 -44.27178955 83.73666382 C-43.29827269 82.75293467 -42.32486625 81.76909625 -41.3515625 80.78515625 C-40.34880589 79.77866747 -39.34560528 78.77262086 -38.34197998 77.76699829 C-35.70719937 75.12459728 -33.07848139 72.47624447 -30.45098877 69.82659912 C-27.76654062 67.12165823 -25.07639128 64.42240054 -22.38671875 61.72265625 C-17.11420132 56.42871701 -11.84807693 51.12847592 -6.5859375 45.82421875 C-10.34188335 44.72030536 -12.02133195 45.1023438 -15.6484375 46.66015625 C-16.61007813 47.06492187 -17.57171875 47.4696875 -18.5625 47.88671875 C-19.56023437 48.31984375 -20.55796875 48.75296875 -21.5859375 49.19921875 C-23.56413682 50.04263707 -25.54326894 50.88387171 -27.5234375 51.72265625 C-28.39871094 52.10083496 -29.27398437 52.47901367 -30.17578125 52.86865234 C-37.02449921 55.58399696 -44.30335342 56.06306134 -51.2109375 53.26171875 C-58.02299282 49.84966272 -64.09575924 44.65915118 -67.5859375 37.82421875 C-68.1484375 34.76171875 -68.1484375 34.76171875 -67.5859375 31.82421875 C-64.31065047 28.10246966 -60.94914882 25.63372432 -56.640625 23.22265625 C-56.07698242 22.90399094 -55.51333984 22.58532562 -54.93261719 22.25700378 C-53.11285427 21.23019058 -51.28702568 20.21473242 -49.4609375 19.19921875 C-48.20278848 18.49169115 -46.94514176 17.78326961 -45.68798828 17.07397461 C-43.17510404 15.65663218 -40.66040496 14.24259439 -38.14453125 12.83056641 C-33.22298152 10.06260779 -28.3402781 7.22825683 -23.4609375 4.38671875 C-14.97320555 -0.55233122 -9.83295096 -3.22409394 0 0 Z M-36.5859375 29.82421875 C-38.70229031 31.18115967 -40.82179886 32.53319911 -42.9453125 33.87890625 C-43.84217773 34.44851074 -44.73904297 35.01811523 -45.66308594 35.60498047 C-46.29762695 36.0073291 -46.93216797 36.40967773 -47.5859375 36.82421875 C-45.60236204 39.21742072 -45.60236204 39.21742072 -41.78515625 39.296875 C-35.07434958 39.14780565 -29.38234623 36.04516865 -23.3984375 33.26171875 C-21.11970618 32.20478617 -18.83470558 31.16124101 -16.54296875 30.1328125 C-15.54241455 29.66673584 -14.54186035 29.20065918 -13.51098633 28.72045898 C-8.73136248 27.25597362 -4.89138864 28.39513712 -0.5703125 30.671875 C0.12320313 31.02958984 0.81671875 31.38730469 1.53125 31.75585938 C2.23507813 32.12904297 2.93890625 32.50222656 3.6640625 32.88671875 C8.31197366 35.66986475 8.31197366 35.66986475 13.4140625 36.82421875 C14.66904207 40.58915745 14.93470694 42.85430493 14.4140625 46.82421875 C13.16563416 48.6114502 13.16563416 48.6114502 11.47241211 50.46679688 C10.51514725 51.51625488 10.51514725 51.51625488 9.5385437 52.58691406 C5.75065161 56.57596735 1.88209409 60.47785017 -2.01953125 64.35546875 C-2.89746841 65.23199097 -3.77540558 66.10851318 -4.6799469 67.01159668 C-7.45875246 69.78484671 -10.24103147 72.55458157 -13.0234375 75.32421875 C-14.91913615 77.2143268 -16.81403533 79.10523393 -18.70898438 80.99609375 C-23.33198939 85.60812879 -27.95784407 90.21729016 -32.5859375 94.82421875 C-28.59315082 96.13159138 -26.26060269 95.2429872 -22.47265625 93.46484375 C-18.6921101 91.31622483 -15.19632412 88.83334695 -11.6484375 86.32421875 C-5.8691934 82.25123403 -0.4669084 78.75136352 6.4140625 76.82421875 C7.18492188 76.60378906 7.95578125 76.38335937 8.75 76.15625 C22.93405014 72.73647092 39.19065877 74.28373805 51.9140625 81.69921875 C55.56258667 84.1152983 59.01367816 86.77914482 62.484375 89.44140625 C70.47474443 95.16729851 78.70628856 97.17092496 88.4140625 96.82421875 C86.2571435 94.44793775 84.30162618 93.14428728 81.38671875 91.828125 C68.10664577 85.35199804 62.35930695 77.97503204 55.625 65.03955078 C53.13906665 60.49169611 49.84080304 56.67930186 46.4140625 52.82421875 C45.74375 52.02371094 45.0734375 51.22320312 44.3828125 50.3984375 C34.12303651 38.44728539 22.21862201 29.78745852 8.55859375 22.12841797 C6.51802916 20.8874462 4.75231915 19.53453254 2.9140625 18.015625 C-10.20897902 8.17810825 -25.21260979 22.25437482 -36.5859375 29.82421875 Z " fill="#000000" transform="translate(107.5859375,306.17578125)"/>
<path d="M0 0 C1.64393665 1.37936559 3.2871861 2.75955067 4.9296875 4.140625 C12.82468027 10.05556367 22.70539385 11.79366055 32.375 10.97265625 C42.59276601 9.20994223 50.152228 4.30589198 58.4375 -1.65234375 C64.77519934 -6.14237526 71.43211413 -9.87459594 79.375 -10.02734375 C82.32255732 -8.68171976 83.91777272 -7.94179831 85.375 -5.02734375 C85.75 -1.65234375 85.75 -1.65234375 85.375 1.97265625 C82.68313289 5.11316788 79.72625604 6.24319157 75.9375 7.59765625 C71.17052928 9.37817656 67.47695346 11.89457296 63.4375 14.91015625 C48.93522975 25.66636588 33.81759991 29.08781962 15.9609375 26.47265625 C5.40245777 24.07176163 -2.9656349 19.06288156 -11.45263672 12.53881836 C-19.74315768 6.31430197 -29.34721545 4.10001417 -39.625 4.97265625 C-49.33520732 6.64780897 -56.90369203 10.99528329 -64.5625 17.03515625 C-76.76416507 26.40780623 -90.72262863 28.05393463 -105.625 26.97265625 C-117.3139837 25.34766903 -127.48146473 20.0960649 -136.515625 12.64453125 C-139.22684114 10.49564142 -142.10682522 8.75207135 -145.09375 7.015625 C-146.625 5.97265625 -146.625 5.97265625 -147.625 3.97265625 C-147.98019903 0.13650668 -148.17224594 -2.17364009 -146.0625 -5.46484375 C-142.52546 -7.73217708 -140.79372141 -7.69971817 -136.625 -7.02734375 C-130.93954416 -4.36895655 -126.00193451 -0.58783069 -121 3.16015625 C-112.41710001 9.50351252 -103.26283145 11.87586835 -92.625 10.97265625 C-82.40723399 9.20994223 -74.847772 4.30589198 -66.5625 -1.65234375 C-46.99858268 -15.49992898 -19.05222495 -14.71444159 0 0 Z " fill="#000000" transform="translate(164.625,425.02734375)"/>
<path d="M0 0 C5.99233335 5.5615948 9.65876644 12.15499658 10.3359375 20.34765625 C10.56565493 30.38268097 8.86367775 37.38943297 2.53515625 45.27734375 C-4.11758063 52.1620109 -11.29968768 54.92576082 -20.83984375 55.15234375 C-30.40066694 55.02706322 -38.22376695 51.6253559 -44.90234375 44.77734375 C-50.25883205 37.88855929 -52.67345704 29.91239144 -52.27734375 21.22265625 C-50.99779685 11.81265511 -47.02296938 4.72473441 -39.90234375 -1.53515625 C-27.96600494 -9.9720865 -11.28699862 -9.10839929 0 0 Z M-34.90234375 15.58984375 C-36.93189714 21.42480974 -36.87031138 27.24658459 -34.40234375 32.90234375 C-30.28177705 37.12592462 -26.21486463 39.09318861 -20.40234375 40.02734375 C-14.75012692 39.11895176 -10.57821954 36.5191431 -6.96484375 32.08984375 C-4.63008901 26.32162616 -4.48139772 21.92690583 -6.8828125 16.2578125 C-8.41440019 13.5643307 -10.31006546 12.10872754 -12.90234375 10.46484375 C-13.79953125 9.84609375 -13.79953125 9.84609375 -14.71484375 9.21484375 C-22.97440346 6.38299471 -29.22250739 9.55501762 -34.90234375 15.58984375 Z " fill="#000000" transform="translate(209.90234375,298.53515625)"/>
</svg>
