<?xml version="1.0" encoding="UTF-8"?>
<svg version="1.1" xmlns="http://www.w3.org/2000/svg" width="512" height="512">
<path d="M0 0 C0.88910568 -0.02567047 1.77821136 -0.05134094 2.69425964 -0.07778931 C3.65665054 -0.09256317 4.61904144 -0.10733704 5.6105957 -0.12255859 C6.61161819 -0.13870209 7.61264069 -0.15484558 8.64399719 -0.17147827 C10.77154624 -0.19916871 12.8991843 -0.22060918 15.02685547 -0.23632812 C17.17686469 -0.25919542 19.32676826 -0.29982286 21.47607422 -0.359375 C35.94152874 -0.75998092 46.35141834 0.42157432 58.59887695 8.35400391 C59.73266329 9.05783264 60.86756233 9.75987264 62.00366211 10.45996094 C73.20502349 17.51559596 83.07506414 26.3739062 92.63110352 35.48291016 C94.05392717 36.83582833 95.48388677 38.18125519 96.91821289 39.52197266 C107.11902186 49.09349793 115.36603725 57.23533008 120.59887695 70.35400391 C121.64018023 72.83300838 122.70257057 75.30275678 123.7668457 77.77197266 C124.04089233 78.40953491 124.31493896 79.04709717 124.59729004 79.70397949 C125.26378504 81.25428903 125.93122988 82.80419016 126.59887695 84.35400391 C127.66847656 84.36334961 128.73807617 84.37269531 129.84008789 84.38232422 C133.81381666 84.42223903 137.78677239 84.48800111 141.76000977 84.56152344 C143.47865864 84.58972458 145.19743701 84.61094344 146.91625977 84.625 C149.38926443 84.64644224 151.8607137 84.69309546 154.33325195 84.74462891 C155.10006287 84.74585754 155.86687378 84.74708618 156.65692139 84.74835205 C160.2171436 84.84579558 162.22349446 85.06515739 165.08447266 87.26660156 C167.68314146 90.84851649 167.14295043 94.10757675 166.59887695 98.35400391 C164.97650541 106.54074029 162.02625299 113.18921291 155.09887695 118.10400391 C145.77727156 123.29432668 134.15058445 123.99104075 123.72387695 125.10400391 C122.5534082 125.24193359 121.38293945 125.37986328 120.17700195 125.52197266 C108.25978839 126.83259592 108.25978839 126.83259592 103.59887695 125.35400391 C101.57812143 123.36031207 100.16742025 121.7142936 98.59887695 119.41650391 C98.17880371 118.83618408 97.75873047 118.25586426 97.32592773 117.65795898 C96.06298595 115.90355243 94.82941958 114.13123186 93.59887695 112.35400391 C92.51219727 110.82646484 92.51219727 110.82646484 91.40356445 109.26806641 C89.78170134 106.97644606 88.18023277 104.67367485 86.59887695 102.35400391 C84.22362914 104.31616514 81.9045807 106.31169338 79.59887695 108.35400391 C78.71071289 109.12744141 77.82254883 109.90087891 76.9074707 110.69775391 C76.00125977 111.53306641 75.09504883 112.36837891 74.16137695 113.22900391 C72.86393555 114.40076172 72.86393555 114.40076172 71.5402832 115.59619141 C67.3364658 121.56781129 70.01389449 130.04109602 71.09887695 136.85400391 C74.10582833 155.73549141 74.10582833 155.73549141 68.59887695 163.35400391 C63.22620789 167.71929752 59.47590931 168.55640012 52.72387695 168.06494141 C38.55955037 166.6251855 38.55955037 166.6251855 25.97485352 171.72851562 C23.66854984 174.13875846 21.63002058 176.71024116 19.59887695 179.35400391 C17.7390353 181.32992355 15.79409775 183.21262434 13.84887695 185.10400391 C12.94524414 186.01794922 12.04161133 186.93189453 11.1105957 187.87353516 C9.01792823 189.94016633 6.89885989 191.88618339 4.66137695 193.79150391 C1.12208569 196.80753239 -2.1360645 200.04848615 -5.40112305 203.35400391 C-8.62510098 206.61783323 -11.83630178 209.82230554 -15.33862305 212.79150391 C-19.06079541 215.9541848 -22.46901228 219.38435976 -25.90112305 222.85400391 C-43.30623903 240.39088266 -43.30623903 240.39088266 -52.28393555 240.85009766 C-54.03144004 240.85141157 -55.77907589 240.83150277 -57.52612305 240.79150391 C-58.84676758 240.80213867 -58.84676758 240.80213867 -60.1940918 240.81298828 C-65.04296967 240.76545026 -68.51538829 240.56691688 -72.40112305 237.35400391 C-74.89908877 233.60705532 -75.26291312 230.68964689 -74.40112305 226.35400391 C-73.3034668 224.30517578 -73.3034668 224.30517578 -71.83862305 222.19775391 C-71.29270508 221.41190918 -70.74678711 220.62606445 -70.18432617 219.81640625 C-67.16401802 215.64570143 -64.04891848 211.55402703 -60.90112305 207.47900391 C-55.50254388 200.44255497 -50.15435532 193.37473193 -44.90112305 186.22900391 C-44.36293945 185.49697754 -43.82475586 184.76495117 -43.27026367 184.01074219 C-38.96238425 178.1384084 -34.68183057 172.24615877 -30.40112305 166.35400391 C-31.28372803 166.30912842 -32.16633301 166.26425293 -33.07568359 166.21801758 C-36.36583994 166.04425924 -39.65484966 165.85835563 -42.94384766 165.66430664 C-44.36447707 165.58296611 -45.78538883 165.50640458 -47.20654297 165.43481445 C-49.25541534 165.33075614 -51.30263979 165.20925829 -53.3503418 165.08447266 C-54.58099365 165.01639404 -55.81164551 164.94831543 -57.07958984 164.87817383 C-60.60167121 164.32235548 -62.56729745 163.48404494 -65.40112305 161.35400391 C-68.14116468 157.24394146 -68.11155153 154.17899736 -67.40112305 149.35400391 C-65.46510506 143.44223469 -63.35377483 139.40219807 -57.76274109 136.32588196 C-52.55889729 134.18434108 -46.89738416 133.61795835 -41.3659668 132.77587891 C-40.00011575 132.55848485 -38.63444108 132.33998004 -37.26893616 132.12042236 C-34.41835366 131.66498775 -31.56655019 131.2187051 -28.71337891 130.77978516 C-25.06767786 130.21881403 -21.42480318 129.64156829 -17.78261471 129.0582695 C-14.96676654 128.6080087 -12.15009863 128.1630792 -9.33310127 127.72006989 C-7.33995343 127.40661699 -5.34709017 127.09135631 -3.35423279 126.77606201 C-2.13599319 126.58876526 -0.9177536 126.40146851 0.33740234 126.20849609 C1.40438858 126.04291199 2.47137482 125.87732788 3.57069397 125.70672607 C6.60965171 125.35274886 9.54238616 125.29142988 12.59887695 125.35400391 C12.31012695 124.43619141 12.02137695 123.51837891 11.72387695 122.57275391 C6.92422324 106.7072319 6.92422324 106.7072319 10.03637695 99.47900391 C12.45926364 95.10245155 15.78160858 91.61675359 19.1809082 87.97900391 C22.346788 84.54205524 25.25769322 80.92634953 28.1965332 77.29541016 C31.34566487 73.43964406 34.5650271 69.64590514 37.79370117 65.85668945 C40.45172022 62.73182703 43.05279703 59.57072959 45.59887695 56.35400391 C44.23161234 55.0748519 42.85464457 53.80606831 41.47387695 52.54150391 C40.70817383 51.83380859 39.9424707 51.12611328 39.15356445 50.39697266 C33.17528362 45.61617621 27.72890972 44.78067089 20.34887695 43.97900391 C9.36920394 42.57190933 1.12637897 40.46298052 -5.99487305 31.44384766 C-10.65633859 24.51639192 -11.24935655 17.5988336 -10.40112305 9.35400391 C-8.88724169 3.41176213 -6.36278933 0.16060078 0 0 Z M5.59887695 16.35400391 C6.10815972 20.93475822 6.10815972 20.93475822 8.6887207 24.62744141 C12.10967245 26.65705305 15.28957804 27.39127473 19.16137695 27.97900391 C19.86883057 28.1039624 20.57628418 28.2289209 21.30517578 28.35766602 C24.49339994 28.91130973 27.63025126 29.35667486 30.85668945 29.63134766 C39.46133379 30.46886637 44.67556734 34.54527667 50.99975586 40.00488281 C52.57146846 41.33088035 54.18193537 42.57305598 55.8293457 43.80322266 C56.82579102 44.56248047 57.82223633 45.32173828 58.84887695 46.10400391 C59.7409082 46.77947266 60.63293945 47.45494141 61.55200195 48.15087891 C64.10453121 50.89825773 64.45086705 52.64388896 64.59887695 56.35400391 C62.17719209 62.07798632 58.20520393 66.16386152 54.0168457 70.69384766 C50.86503189 74.16135203 47.93603492 77.7862667 44.98950195 81.42822266 C42.8235984 84.07897717 40.62496285 86.69509386 38.40405273 89.29956055 C36.9961753 90.95281915 35.5974095 92.61339994 34.20043945 94.27587891 C32.59439495 96.18710722 30.96797066 98.06458096 29.30981445 99.93212891 C25.49309247 104.30300425 25.49309247 104.30300425 24.47387695 109.85400391 C25.07490596 111.72387193 25.68577129 113.59151509 26.3605957 115.43603516 C28.35733318 120.99767955 29.84333084 126.43549881 28.59887695 132.35400391 C25.93498182 136.32287333 24.18335468 137.97645994 19.4934082 138.90478516 C17.76598389 139.24823975 17.76598389 139.24823975 16.00366211 139.59863281 C14.53629075 139.85556113 13.06790386 140.10671701 11.59887695 140.35400391 C10.68056091 140.50899353 9.76224487 140.66398315 8.81610107 140.82366943 C0.98264067 142.12692517 -6.86436683 143.3377962 -14.71362305 144.54150391 C-17.11147737 144.91281072 -19.50926449 145.28455178 -21.90698242 145.65673828 C-27.73759666 146.56083892 -33.56901998 147.45956037 -39.40112305 148.35400391 C-39.40112305 148.68400391 -39.40112305 149.01400391 -39.40112305 149.35400391 C-30.54148861 150.10263862 -21.70095323 150.59690381 -12.81518555 150.88916016 C-11.55636566 150.9321373 -10.29754578 150.97511444 -9.00057983 151.01939392 C-6.35011315 151.10899695 -3.69963874 151.19743298 -1.04907227 151.28393555 C2.92883795 151.4140327 6.90641466 151.55316332 10.8840332 151.69189453 C26.12887926 152.20784216 41.34553982 152.48113074 56.59887695 152.35400391 C56.15298613 145.06537942 55.58286268 137.8954195 54.53637695 130.66650391 C52.35876756 114.26638313 52.35876756 114.26638313 54.80493164 110.49414062 C55.35052734 109.90906738 55.89612305 109.32399414 56.45825195 108.72119141 C57.41042603 107.69312378 57.41042603 107.69312378 58.38183594 106.64428711 C62.68762549 102.19625146 67.02474826 97.7849685 71.41137695 93.41650391 C72.37443608 92.44987489 73.33732776 91.483079 74.30004883 90.51611328 C75.20948242 89.60796875 76.11891602 88.69982422 77.0559082 87.76416016 C77.8806665 86.94052979 78.7054248 86.11689941 79.55517578 85.26831055 C82.23105978 82.76184699 83.21011301 82.39801492 86.91137695 81.97900391 C91.40761377 82.43624833 92.83891717 84.05965105 95.59887695 87.35400391 C97.7050578 90.10913521 99.69070922 92.93837363 101.66137695 95.79150391 C102.17764648 96.52949219 102.69391602 97.26748047 103.22583008 98.02783203 C106.06915227 102.10265683 108.85943586 106.20871055 111.59887695 110.35400391 C116.1216329 109.93508886 120.64152458 109.49058464 125.16137695 109.04150391 C126.43819336 108.92355469 127.71500977 108.80560547 129.03051758 108.68408203 C138.22080563 107.85885023 138.22080563 107.85885023 146.59887695 104.35400391 C147.77613953 102.3171058 147.77613953 102.3171058 148.59887695 100.35400391 C147.67550537 100.33942139 146.75213379 100.32483887 145.80078125 100.30981445 C142.37310491 100.24874083 138.94623033 100.17458781 135.51904297 100.09155273 C134.03607841 100.05830968 132.55298751 100.03027567 131.06982422 100.00756836 C128.93703403 99.97400922 126.80540083 99.92169753 124.6730957 99.86572266 C123.39007568 99.83953857 122.10705566 99.81335449 120.78515625 99.78637695 C117.59887695 99.35400391 117.59887695 99.35400391 115.76660156 98.15063477 C114.28435484 95.87008832 113.60507963 93.7091322 112.84106445 91.09619141 C107.22561895 74.23733439 98.92860497 63.1585728 86.28637695 50.79150391 C85.23000031 49.7520462 85.23000031 49.7520462 84.15228271 48.69158936 C75.46850206 40.22116075 66.45970004 32.34051211 56.38449097 25.56155396 C55.20659772 24.7649848 54.03924787 23.95256745 52.88381958 23.12374878 C42.74553174 15.8908128 34.34190049 15.32365275 22.22387695 15.85400391 C20.60157074 15.8942532 18.97916649 15.93073349 17.35668945 15.96337891 C13.43493454 16.05031877 9.51803266 16.18763975 5.59887695 16.35400391 Z M-24.54711914 184.46777344 C-27.35369557 188.83692626 -30.4704247 192.95478836 -33.58862305 197.10400391 C-34.72149727 198.6459716 -35.85301787 200.18893475 -36.9831543 201.73291016 C-42.34962236 209.02030337 -47.87628731 216.1864014 -53.40112305 223.35400391 C-53.07112305 224.01400391 -52.74112305 224.67400391 -52.40112305 225.35400391 C-46.82343282 220.53877888 -41.38369888 215.60004085 -36.02612305 210.54150391 C-35.28370361 209.84226807 -34.54128418 209.14303223 -33.77636719 208.42260742 C-28.93023506 203.84285664 -24.19367567 199.17816797 -19.51049805 194.43212891 C-17.59554908 192.54554955 -15.63471093 190.78321508 -13.58862305 189.04150391 C-9.19562449 185.29269251 -5.17863818 181.18614616 -1.14404297 177.05981445 C1.47279989 174.40130084 4.10685865 171.87959423 6.99731445 169.51806641 C7.85583008 168.80392578 8.7143457 168.08978516 9.59887695 167.35400391 C9.59887695 167.02400391 9.59887695 166.69400391 9.59887695 166.35400391 C-8.87418077 162.7767417 -14.95556162 169.27389132 -24.54711914 184.46777344 Z " fill="#000000" transform="translate(328.401123046875,165.64599609375)"/>
<path d="M0 0 C4.70877138 4.03467359 7.35874586 8.42792973 9.48046875 14.21484375 C12.2457679 21.37730994 14.86695742 28.09560011 21 33 C30.25023066 36.37162302 41.69480894 35.08039654 51.30258179 34.03244019 C54.95080191 33.70881258 56.77010475 33.86263307 59.95288086 35.7644043 C62 38 62 38 62.625 41.5 C61.91190406 51.59593724 56.09706777 61.07513145 49 68 C39.63446747 74.91500221 31.74784238 75.26378445 20.50146484 75.35009766 C18.92058599 75.36666327 17.33978222 75.39396192 15.75927734 75.43212891 C13.46673194 75.48711175 11.17592978 75.50879811 8.8828125 75.5234375 C8.18261993 75.54610687 7.48242737 75.56877625 6.76101685 75.59213257 C1.05811392 75.567777 -1.13684624 73.88112356 -5 70 C-6.56396484 68.1472168 -6.56396484 68.1472168 -7.7109375 66.44921875 C-8.15179688 65.83369141 -8.59265625 65.21816406 -9.046875 64.58398438 C-9.93895522 63.31014629 -10.81645288 62.02598153 -11.6796875 60.73242188 C-14.19750479 57.19110129 -14.19750479 57.19110129 -18.06347656 55.54931641 C-20.95947703 55.5094392 -23.38856582 55.69428291 -26 57 C-25.18015625 57.9178125 -24.3603125 58.835625 -23.515625 59.78125 C-22.42663799 61.02044211 -21.33812139 62.26004772 -20.25 63.5 C-19.71117187 64.10070312 -19.17234375 64.70140625 -18.6171875 65.3203125 C-10.46508871 74.66540135 -8.58010738 82.73250165 -9 95 C-9.34215369 99.26334883 -9.86310721 103.49112134 -10.42578125 107.73046875 C-10.57403854 108.88694412 -10.72229584 110.04341949 -10.87504578 111.23493958 C-11.18793462 113.65805083 -11.50494072 116.08063375 -11.82592773 118.50268555 C-12.31245231 122.18713884 -12.78107719 125.87356997 -13.24804688 129.56054688 C-13.55622253 131.92982681 -13.86543209 134.29897254 -14.17578125 136.66796875 C-14.31341385 137.75675827 -14.45104645 138.84554779 -14.59284973 139.96733093 C-17.08972042 158.4978369 -17.08972042 158.4978369 -22.875 163 C-23.86113281 163.804375 -23.86113281 163.804375 -24.8671875 164.625 C-31.68186751 169.01834682 -39.16902742 168.86819784 -47 168 C-50.40353832 166.42958523 -52.30519524 164.38960951 -54 161 C-54.13267296 157.9886324 -54.18965655 155.01243521 -54.1875 152 C-54.18814453 151.05390869 -54.18878906 150.10781738 -54.18945312 149.13305664 C-54.11041632 137.73648879 -53.33394456 126.37723417 -52.56991577 115.01014709 C-52.43953854 112.96556228 -52.32940233 110.92075847 -52.22387695 108.87475586 C-52.07893689 106.36620222 -51.87783862 103.86000557 -51.61010742 101.36157227 C-51.0942675 95.16148715 -51.0942675 95.16148715 -53.66650391 89.71704102 C-56.09657699 87.57188573 -58.59080734 85.82224567 -61.3125 84.0625 C-62.25569092 83.39992188 -63.19888184 82.73734375 -64.1706543 82.0546875 C-66.12668813 80.68237611 -68.09477794 79.32709722 -70.07421875 77.98876953 C-73.73598145 75.49972423 -77.31436987 72.90900499 -80.8815918 70.28686523 C-82.44768458 69.13569188 -84.02156033 67.99499559 -85.60473633 66.86743164 C-99.09277262 57.12515573 -99.09277262 57.12515573 -102 50 C-103.09363237 39.90297559 -101.97486373 31.7919443 -96.22265625 23.41015625 C-80.48939267 3.92669204 -48.72652941 1.33168372 -25.625 -1.75 C-24.66843506 -1.87777832 -23.71187012 -2.00555664 -22.72631836 -2.13720703 C-14.64514162 -3.15748878 -7.33328135 -4.0778328 0 0 Z M-21.48144531 13.43164062 C-24.83901813 13.88406149 -28.18182221 14.38201644 -31.52685547 14.91650391 C-33.5983909 15.24577053 -35.67188818 15.55914979 -37.74609375 15.87109375 C-62.48087988 19.36786202 -62.48087988 19.36786202 -83 32 C-85.72951137 36.21443423 -87.64194607 39.87255734 -87 45 C-81.46072066 52.4356092 -71.44003198 57.90941168 -64.02734375 63.3203125 C-59.17694443 66.86342536 -54.35449052 70.44078053 -49.5625 74.0625 C-48.85931641 74.58610107 -48.15613281 75.10970215 -47.43164062 75.64916992 C-41.02227726 80.51515985 -37.16449807 84.76385861 -36 93 C-35.9143793 97.65010892 -36.18366412 102.2652944 -36.4609375 106.90625 C-36.53210805 108.23997524 -36.6022097 109.5737579 -36.67129517 110.90759277 C-36.8546847 114.39338601 -37.05244815 117.87821563 -37.25335693 121.36303711 C-37.45634637 124.92905126 -37.64553678 128.49579549 -37.8359375 132.0625 C-38.21056144 139.04243619 -38.60039674 146.02145049 -39 153 C-35.06924356 152.42547254 -35.06924356 152.42547254 -32 150 C-31.39018713 147.4222763 -31.39018713 147.4222763 -31.02270508 144.36035156 C-30.85946243 143.17862366 -30.69621979 141.99689575 -30.5280304 140.77935791 C-30.36022568 139.49607605 -30.19242096 138.21279419 -30.01953125 136.890625 C-29.84112104 135.56257664 -29.66221487 134.23459483 -29.48283386 132.90667725 C-29.10839245 130.11980785 -28.74016796 127.33220398 -28.3762207 124.54394531 C-27.91054772 120.980376 -27.4293904 117.41910557 -26.9434557 113.85824966 C-26.57073947 111.11378002 -26.20648217 108.36823748 -25.84470177 105.62230682 C-25.58632733 103.67303619 -25.3207886 101.72471949 -25.05513 99.77642822 C-24.90134384 98.58209167 -24.74755768 97.38775513 -24.58911133 96.15722656 C-24.45080399 95.11068909 -24.31249664 94.06415161 -24.16999817 92.98590088 C-23.74675641 85.5519506 -26.20648224 81.17419753 -30.94921875 75.78515625 C-32.47708254 74.09730672 -34.00985966 72.41389507 -35.546875 70.734375 C-49.29094988 55.41454631 -49.29094988 55.41454631 -49.25 49.9375 C-49 46 -49 46 -47 44 C-42.93214693 43.00250309 -38.76590348 42.49134175 -34.625 41.875 C-33.49449219 41.69324219 -32.36398438 41.51148438 -31.19921875 41.32421875 C-15.31521576 38.9043191 -15.31521576 38.9043191 -9 40 C-5.6514052 42.57702115 -3.4314291 45.56680198 -1 49 C0.47124311 50.83969804 1.95026703 52.67320411 3.4375 54.5 C4.09621094 55.3353125 4.75492187 56.170625 5.43359375 57.03125 C6.85025239 58.88794643 6.85025239 58.88794643 8 60 C11.53353758 60.28159078 15.08159153 60.2318983 18.625 60.25 C19.61113281 60.270625 20.59726563 60.29125 21.61328125 60.3125 C29.16517361 60.35283053 34.09154609 59.53716192 39.9375 54.4375 C42.21531408 52.27770623 42.21531408 52.27770623 42 50 C40.81241089 49.97812622 40.81241089 49.97812622 39.60083008 49.95581055 C36.00423457 49.88121644 32.40855557 49.78459167 28.8125 49.6875 C27.56662109 49.66494141 26.32074219 49.64238281 25.03710938 49.61914062 C23.83505859 49.58369141 22.63300781 49.54824219 21.39453125 49.51171875 C20.28956299 49.48553467 19.18459473 49.45935059 18.04614258 49.43237305 C14.55594597 48.93697045 12.76239585 48.18289673 10 46 C8.2265625 43.38378906 8.2265625 43.38378906 6.625 40.265625 C5.73554688 38.56792969 5.73554688 38.56792969 4.828125 36.8359375 C4.21793675 35.64103995 3.60856709 34.44572403 3 33.25 C0.706808 28.81061548 -1.61745058 24.39210264 -4 20 C-4.40734375 19.21173828 -4.8146875 18.42347656 -5.234375 17.61132812 C-6.42866039 15.40127119 -6.42866039 15.40127119 -9 13 C-13.44476166 12.33011739 -17.04392874 12.88146326 -21.48144531 13.43164062 Z " fill="#000000" transform="translate(205,96)"/>
<path d="M0 0 C14.57760041 5.84695781 28.63922937 14.45410256 40.4140625 24.82421875 C41.25195312 25.55382812 42.08984375 26.2834375 42.953125 27.03515625 C45.47251226 29.26530872 47.94896667 31.53432808 50.4140625 33.82421875 C51.08050781 34.42492187 51.74695313 35.025625 52.43359375 35.64453125 C56.73951924 39.69613527 60.33599483 44.1528552 63.8515625 48.88671875 C64.33214111 49.53133057 64.81271973 50.17594238 65.30786133 50.84008789 C67.60111226 54.00376983 69.62161125 57.07397188 71.23828125 60.63671875 C77.65601731 74.3303765 90.32313904 79.41242996 103.4140625 85.82421875 C105.41467291 86.82299699 107.41483921 87.82266683 109.4140625 88.82421875 C109.99414062 88.31890625 110.57421875 87.81359375 111.171875 87.29296875 C117.49137555 82.03714651 117.49137555 82.03714651 121.6640625 81.07421875 C125.54409737 82.13241008 127.10896876 83.54120645 129.4140625 86.82421875 C129.56246321 90.97943863 129.02614119 93.03443979 126.4765625 96.32421875 C111.07821121 108.89430143 96.03841346 113.28747287 76.4140625 111.82421875 C64.81857471 110.15882291 56.00095784 104.54311828 46.8515625 97.63671875 C38.06391088 91.18751784 28.67094431 89.15143579 17.77734375 90.0390625 C8.73188814 91.53007167 1.71655587 95.7051504 -5.3984375 101.32421875 C-18.47583873 111.46173908 -32.66177651 112.75626372 -48.5859375 111.82421875 C-56.78567364 110.6682225 -64.56359714 107.15259547 -71.5859375 102.82421875 C-73.93143424 99.30597364 -74.16585153 97.96646181 -73.5859375 93.82421875 C-71.17666527 90.56461515 -69.72653853 89.04737982 -65.7109375 88.26171875 C-62.74768583 88.79510405 -61.43683954 89.39913478 -58.9609375 90.94921875 C-57.8471875 91.56796875 -56.7334375 92.18671875 -55.5859375 92.82421875 C-51.94959822 91.67071413 -49.64598556 89.1261772 -47.00097656 86.46630859 C-46.10034485 85.56552582 -45.19971313 84.66474304 -44.27178955 83.73666382 C-43.29827269 82.75293467 -42.32486625 81.76909625 -41.3515625 80.78515625 C-40.34880589 79.77866747 -39.34560528 78.77262086 -38.34197998 77.76699829 C-35.70719937 75.12459728 -33.07848139 72.47624447 -30.45098877 69.82659912 C-27.76654062 67.12165823 -25.07639128 64.42240054 -22.38671875 61.72265625 C-17.11420132 56.42871701 -11.84807693 51.12847592 -6.5859375 45.82421875 C-10.34188335 44.72030536 -12.02133195 45.1023438 -15.6484375 46.66015625 C-16.61007813 47.06492187 -17.57171875 47.4696875 -18.5625 47.88671875 C-19.56023437 48.31984375 -20.55796875 48.75296875 -21.5859375 49.19921875 C-23.56413682 50.04263707 -25.54326894 50.88387171 -27.5234375 51.72265625 C-28.39871094 52.10083496 -29.27398437 52.47901367 -30.17578125 52.86865234 C-37.02449921 55.58399696 -44.30335342 56.06306134 -51.2109375 53.26171875 C-58.02299282 49.84966272 -64.09575924 44.65915118 -67.5859375 37.82421875 C-68.1484375 34.76171875 -68.1484375 34.76171875 -67.5859375 31.82421875 C-64.31065047 28.10246966 -60.94914882 25.63372432 -56.640625 23.22265625 C-56.07698242 22.90399094 -55.51333984 22.58532562 -54.93261719 22.25700378 C-53.11285427 21.23019058 -51.28702568 20.21473242 -49.4609375 19.19921875 C-48.20278848 18.49169115 -46.94514176 17.78326961 -45.68798828 17.07397461 C-43.17510404 15.65663218 -40.66040496 14.24259439 -38.14453125 12.83056641 C-33.22298152 10.06260779 -28.3402781 7.22825683 -23.4609375 4.38671875 C-14.97320555 -0.55233122 -9.83295096 -3.22409394 0 0 Z M-36.5859375 29.82421875 C-38.70229031 31.18115967 -40.82179886 32.53319911 -42.9453125 33.87890625 C-43.84217773 34.44851074 -44.73904297 35.01811523 -45.66308594 35.60498047 C-46.29762695 36.0073291 -46.93216797 36.40967773 -47.5859375 36.82421875 C-45.60236204 39.21742072 -45.60236204 39.21742072 -41.78515625 39.296875 C-35.07434958 39.14780565 -29.38234623 36.04516865 -23.3984375 33.26171875 C-21.11970618 32.20478617 -18.83470558 31.16124101 -16.54296875 30.1328125 C-15.54241455 29.66673584 -14.54186035 29.20065918 -13.51098633 28.72045898 C-8.73136248 27.25597362 -4.89138864 28.39513712 -0.5703125 30.671875 C0.12320313 31.02958984 0.81671875 31.38730469 1.53125 31.75585938 C2.23507813 32.12904297 2.93890625 32.50222656 3.6640625 32.88671875 C8.31197366 35.66986475 8.31197366 35.66986475 13.4140625 36.82421875 C14.66904207 40.58915745 14.93470694 42.85430493 14.4140625 46.82421875 C13.16563416 48.6114502 13.16563416 48.6114502 11.47241211 50.46679688 C10.51514725 51.51625488 10.51514725 51.51625488 9.5385437 52.58691406 C5.75065161 56.57596735 1.88209409 60.47785017 -2.01953125 64.35546875 C-2.89746841 65.23199097 -3.77540558 66.10851318 -4.6799469 67.01159668 C-7.45875246 69.78484671 -10.24103147 72.55458157 -13.0234375 75.32421875 C-14.91913615 77.2143268 -16.81403533 79.10523393 -18.70898438 80.99609375 C-23.33198939 85.60812879 -27.95784407 90.21729016 -32.5859375 94.82421875 C-28.59315082 96.13159138 -26.26060269 95.2429872 -22.47265625 93.46484375 C-18.6921101 91.31622483 -15.19632412 88.83334695 -11.6484375 86.32421875 C-5.8691934 82.25123403 -0.4669084 78.75136352 6.4140625 76.82421875 C7.18492188 76.60378906 7.95578125 76.38335937 8.75 76.15625 C22.93405014 72.73647092 39.19065877 74.28373805 51.9140625 81.69921875 C55.56258667 84.1152983 59.01367816 86.77914482 62.484375 89.44140625 C70.47474443 95.16729851 78.70628856 97.17092496 88.4140625 96.82421875 C86.2571435 94.44793775 84.30162618 93.14428728 81.38671875 91.828125 C68.10664577 85.35199804 62.35930695 77.97503204 55.625 65.03955078 C53.13906665 60.49169611 49.84080304 56.67930186 46.4140625 52.82421875 C45.74375 52.02371094 45.0734375 51.22320312 44.3828125 50.3984375 C34.12303651 38.44728539 22.21862201 29.78745852 8.55859375 22.12841797 C6.51802916 20.8874462 4.75231915 19.53453254 2.9140625 18.015625 C-10.20897902 8.17810825 -25.21260979 22.25437482 -36.5859375 29.82421875 Z " fill="#000000" transform="translate(107.5859375,306.17578125)"/>
<path d="M0 0 C12.4137179 9.67003682 20.9609149 22.11985241 23 38 C24.2396578 54.23748499 20.21726298 68.68749865 10.0390625 81.4609375 C0.34746525 92.01721258 -12.78342176 98.37093573 -27.03515625 99.30859375 C-43.04144795 99.97415871 -56.30099764 95.50946911 -68.6875 85.3125 C-80.02004812 74.80086084 -85.50790485 60.01556826 -86.375 44.8125 C-85.94437916 29.82151203 -79.68794667 16.07471712 -69.484375 5.2890625 C-50.73559865 -11.98575344 -21.13385973 -14.82016639 0 0 Z M-40 8 C-39.3184082 9.43666016 -39.3184082 9.43666016 -38.62304688 10.90234375 C-36.93025023 14.48094537 -35.25788173 18.06878861 -33.59130859 21.65966797 C-32.86925098 23.20813426 -32.14178636 24.7540918 -31.40869141 26.29736328 C-30.35164007 28.525081 -29.31481135 30.76130486 -28.28125 33 C-27.95314331 33.68054443 -27.62503662 34.36108887 -27.2869873 35.06225586 C-25.07480112 39.92461439 -24.5021554 43.6532066 -25 49 C-27.69101819 51.6118706 -29.21432816 52.00417356 -32.94140625 51.984375 C-36 51 -36 51 -38.01953125 48.10546875 C-38.64064344 46.81047013 -39.23675986 45.50329827 -39.8125 44.1875 C-40.13798828 43.49205078 -40.46347656 42.79660156 -40.79882812 42.08007812 C-41.89012123 39.73039412 -42.94545008 37.366386 -44 35 C-44.83612121 33.16225118 -45.67339333 31.32502562 -46.51171875 29.48828125 C-48.70158081 24.6707549 -50.86075338 19.84019487 -53 15 C-56.17373605 14.66604513 -56.17373605 14.66604513 -58.4375 17.1875 C-59.7059375 18.5796875 -59.7059375 18.5796875 -61 20 C-61.680625 20.7425 -62.36125 21.485 -63.0625 22.25 C-69.59806032 31.52627916 -70.84175415 40.84379364 -70 52 C-67.46018318 63.45094554 -60.39015442 72.20231197 -51 79 C-45.9436359 81.64639267 -40.70801793 83.50365062 -35 84 C-33.824375 84.103125 -32.64875 84.20625 -31.4375 84.3125 C-20.56290735 84.08421657 -10.85518339 79.29051366 -3 72 C5.30085775 62.55891453 7.797114 53.3173715 7.34375 40.94140625 C6.43043893 30.46946456 1.79960084 22.30249219 -5.9140625 15.25 C-13.56748796 9.15165302 -21.82777832 5.87997398 -31.625 5.8125 C-32.56601563 5.79832031 -33.50703125 5.78414062 -34.4765625 5.76953125 C-37.24704023 5.82039293 -37.24704023 5.82039293 -40 8 Z " fill="#000000" transform="translate(284,185)"/>
<path d="M0 0 C12.00846171 8.56273472 19.9746572 19.89345237 23.09375 34.44921875 C25.45715072 48.62617285 23.69375424 62.70178691 15.75390625 74.96875 C14.31805475 76.9135109 12.8288852 78.77126464 11.2734375 80.62109375 C10.67789063 81.42546875 10.08234375 82.22984375 9.46875 83.05859375 C1.75107209 92.06712882 -10.12909966 97.80482443 -21.7265625 99.62109375 C-38.91636652 100.65315876 -53.45037331 97.88002301 -66.8515625 86.43359375 C-77.37857539 76.57677889 -84.0796745 64.37986266 -84.94921875 49.91796875 C-85.43574862 34.28112504 -81.7643358 21.31918916 -71.3515625 9.30859375 C-52.63310757 -10.40817877 -23.19703009 -15.05179461 0 0 Z M-61.96875 22.07421875 C-68.32805216 31.28814099 -70.87703153 41.63431558 -69.1015625 52.68359375 C-66.47721863 63.65022277 -60.47644826 72.80609216 -50.9765625 78.93359375 C-40.56469023 84.73201124 -30.57652918 86.13485041 -19.1640625 82.99609375 C-9.00843684 79.60694891 -0.26290398 72.56464065 4.6640625 62.890625 C6.59835121 58.39518967 6.59835121 58.39518967 7.2734375 53.62109375 C5.48728027 53.59921997 5.48728027 53.59921997 3.66503906 53.5769043 C-0.75583827 53.5189014 -5.17620731 53.4416686 -9.59667969 53.35864258 C-11.50935614 53.32540261 -13.42213047 53.29736776 -15.33496094 53.2746582 C-18.08571044 53.24109506 -20.83556382 53.18877886 -23.5859375 53.1328125 C-24.44024353 53.12642258 -25.29454956 53.12003265 -26.17474365 53.1134491 C-32.09839093 52.96697874 -32.09839093 52.96697874 -35.23925781 51.23754883 C-37.27980682 49.01980836 -37.65493534 47.62943462 -37.7265625 44.62109375 C-35.53253265 40.02407882 -35.53253265 40.02407882 -32.7265625 38.62109375 C-29.73892895 38.46376126 -26.77115099 38.3624796 -23.78125 38.3046875 C-22.8962381 38.2839064 -22.0112262 38.26312531 -21.09939575 38.24171448 C-18.26686509 38.17622777 -15.43424025 38.11733813 -12.6015625 38.05859375 C-10.68358393 38.01540769 -8.76561496 37.97179338 -6.84765625 37.92773438 C-2.14072199 37.82054728 2.56630717 37.71927735 7.2734375 37.62109375 C6.96946045 36.35273682 6.6654834 35.08437988 6.35229492 33.77758789 C6.18130783 33.06413712 6.01032074 32.35068634 5.83415222 31.61561584 C3.65463725 23.86284853 -3.37527594 16.30593014 -10.11328125 12.1484375 C-28.41226135 2.53656893 -48.47836679 5.7983718 -61.96875 22.07421875 Z " fill="#000000" transform="translate(123.7265625,184.37890625)"/>
<path d="M0 0 C1.64393665 1.37936559 3.2871861 2.75955067 4.9296875 4.140625 C12.82468027 10.05556367 22.70539385 11.79366055 32.375 10.97265625 C42.59276601 9.20994223 50.152228 4.30589198 58.4375 -1.65234375 C64.77519934 -6.14237526 71.43211413 -9.87459594 79.375 -10.02734375 C82.32255732 -8.68171976 83.91777272 -7.94179831 85.375 -5.02734375 C85.75 -1.65234375 85.75 -1.65234375 85.375 1.97265625 C82.68313289 5.11316788 79.72625604 6.24319157 75.9375 7.59765625 C71.17052928 9.37817656 67.47695346 11.89457296 63.4375 14.91015625 C48.93522975 25.66636588 33.81759991 29.08781962 15.9609375 26.47265625 C5.40245777 24.07176163 -2.9656349 19.06288156 -11.45263672 12.53881836 C-19.74315768 6.31430197 -29.34721545 4.10001417 -39.625 4.97265625 C-49.33520732 6.64780897 -56.90369203 10.99528329 -64.5625 17.03515625 C-76.76416507 26.40780623 -90.72262863 28.05393463 -105.625 26.97265625 C-117.3139837 25.34766903 -127.48146473 20.0960649 -136.515625 12.64453125 C-139.22684114 10.49564142 -142.10682522 8.75207135 -145.09375 7.015625 C-146.625 5.97265625 -146.625 5.97265625 -147.625 3.97265625 C-147.98019903 0.13650668 -148.17224594 -2.17364009 -146.0625 -5.46484375 C-142.52546 -7.73217708 -140.79372141 -7.69971817 -136.625 -7.02734375 C-130.93954416 -4.36895655 -126.00193451 -0.58783069 -121 3.16015625 C-112.41710001 9.50351252 -103.26283145 11.87586835 -92.625 10.97265625 C-82.40723399 9.20994223 -74.847772 4.30589198 -66.5625 -1.65234375 C-46.99858268 -15.49992898 -19.05222495 -14.71444159 0 0 Z " fill="#000000" transform="translate(164.625,425.02734375)"/>
<path d="M0 0 C6.18216456 4.86596179 9.8915593 11.15561981 12.00390625 18.6796875 C13.03134455 29.31434109 11.6423189 38.38545308 4.87109375 46.82421875 C-1.55149309 53.20649647 -9.77777357 56.60345126 -18.74609375 57.0546875 C-27.50494814 56.82839491 -34.97228939 53.64821299 -41.27734375 47.6015625 C-47.67199772 40.4511767 -50.48955054 32.84071325 -50.2421875 23.22265625 C-49.41645662 14.69010378 -45.40676687 6.43960557 -38.8515625 0.8515625 C-26.9955615 -7.46985558 -12.18169591 -8.05756011 0 0 Z M-31.43359375 16.3046875 C-34.54816737 21.0388394 -34.60626926 25.09357364 -33.99609375 30.6796875 C-31.66640444 35.51827298 -28.83467923 38.34999819 -23.99609375 40.6796875 C-19.00161786 41.4768514 -15.19879614 41.25876643 -10.62109375 39.0546875 C-6.67875724 35.48781161 -4.46465607 32.39774933 -3.05859375 27.2421875 C-2.97006904 22.19627916 -4.18038415 18.81158927 -7.4765625 14.94140625 C-10.9485835 11.61239755 -14.08669703 9.70947023 -18.9453125 9.4453125 C-24.14887407 10.04000525 -27.93388425 12.53576958 -31.43359375 16.3046875 Z " fill="#000000" transform="translate(260.99609375,65.3203125)"/>
<path d="M0 0 C6.63059452 4.71706724 11.004164 10.87186701 13.578125 18.59375 C14.37424599 30.2092858 13.8441407 38.63876533 6.203125 47.90625 C0.75317149 53.75129609 -4.92984582 57.16876154 -12.97265625 57.9296875 C-24.26479809 58.04694754 -31.364123 56.29967519 -39.6328125 48.4921875 C-46.02307832 41.71125041 -47.96217617 34.88863613 -48.421875 25.59375 C-48.03867124 17.02729165 -44.36411372 9.60382839 -38.37890625 3.515625 C-27.3130573 -5.80710792 -12.59398383 -7.31263577 0 0 Z M-29.734375 18.21875 C-32.63765207 22.30484365 -32.92795404 25.66177972 -32.421875 30.59375 C-30.35580082 36.24826882 -27.25909732 38.98343463 -22.109375 41.90625 C-16.91009682 43.23629791 -12.83548203 42.30055351 -8.171875 39.96875 C-3.79248656 36.18655089 -1.69325099 32.80352593 -0.984375 27.03125 C-1.66547034 21.67978663 -3.40712496 18.26037045 -7.484375 14.78125 C-15.51221678 8.80306995 -23.28055265 10.8927895 -29.734375 18.21875 Z " fill="#000000" transform="translate(466.421875,153.40625)"/>
<path d="M0 0 C5.99233335 5.5615948 9.65876644 12.15499658 10.3359375 20.34765625 C10.56565493 30.38268097 8.86367775 37.38943297 2.53515625 45.27734375 C-4.11758063 52.1620109 -11.29968768 54.92576082 -20.83984375 55.15234375 C-30.40066694 55.02706322 -38.22376695 51.6253559 -44.90234375 44.77734375 C-50.25883205 37.88855929 -52.67345704 29.91239144 -52.27734375 21.22265625 C-50.99779685 11.81265511 -47.02296938 4.72473441 -39.90234375 -1.53515625 C-27.96600494 -9.9720865 -11.28699862 -9.10839929 0 0 Z M-34.90234375 15.58984375 C-36.93189714 21.42480974 -36.87031138 27.24658459 -34.40234375 32.90234375 C-30.28177705 37.12592462 -26.21486463 39.09318861 -20.40234375 40.02734375 C-14.75012692 39.11895176 -10.57821954 36.5191431 -6.96484375 32.08984375 C-4.63008901 26.32162616 -4.48139772 21.92690583 -6.8828125 16.2578125 C-8.41440019 13.5643307 -10.31006546 12.10872754 -12.90234375 10.46484375 C-13.79953125 9.84609375 -13.79953125 9.84609375 -14.71484375 9.21484375 C-22.97440346 6.38299471 -29.22250739 9.55501762 -34.90234375 15.58984375 Z " fill="#000000" transform="translate(209.90234375,298.53515625)"/>
</svg>
